#!OML:ASF I:\Random Stuff\random\construction\7_22_03\Session 2\subj1.ASF
:FULLY-SPECIFIED
:DEGREES
430
root 4.38318 17.5505 1.4721 -118.066 88.3484 -125.323
lowerback 2.01898 2.07024 1.26343
upperback -2.84436 2.84941 0.242161
thorax -4.01081 1.39451 -0.612859
lowerneck -19.2644 0.891076 2.3163
upperneck 28.2134 0.152858 2.71422
head 12.5897 0.88238 0.711209
rclavicle -3.90301e-014 -5.86415e-015
rhumerus -32.0271 -16.0179 -23.5397
rradius 39.0862
rwrist -48.8018
rhand -46.266 16.9012
rfingers 7.12502
rthumb -19.0015 -12.1907
lclavicle -3.90301e-014 -5.86415e-015
lhumerus -37.1892 23.0959 24.9325
lradius 50.0886
lwrist 72.9446
lhand -26.313 67.8474
lfingers 7.12502
lthumb 0.243435 -97.827
rfemur -8.65009 23.7525 21.7965
rtibia 19.588
rfoot -23.48 -41.808
rtoes 18.6601
lfemur -20.4552 -20.7078 -14.8276
ltibia 30.1174
lfoot -17.1062 15.8258
ltoes -28.3162
431
root 4.37756 17.548 1.4747 -119.045 88.3197 -126.302
lowerback 2.01669 2.04171 1.31726
upperback -2.8127 2.81218 0.236224
thorax -3.97448 1.37446 -0.646097
lowerneck -19.413 0.942332 2.33451
upperneck 28.295 0.203091 2.74524
head 12.6535 0.91274 0.730916
rclavicle 3.47252e-014 -2.38542e-015
rhumerus -32.4421 -16.3682 -23.5756
rradius 42.0011
rwrist -52.9755
rhand -47.8167 17.7664
rfingers 7.12502
rthumb -20.4923 -11.1721
lclavicle 3.47252e-014 -2.38542e-015
lhumerus -37.0271 24.2185 24.5779
lradius 51.3977
lwrist 74.5974
lhand -26.0334 67.3602
lfingers 7.12502
lthumb 0.513446 -97.3393
rfemur -8.6657 23.7208 21.7883
rtibia 19.5432
rfoot -23.4152 -41.7905
rtoes 18.6841
lfemur -20.5075 -20.6373 -14.8079
ltibia 30.1519
lfoot -17.0921 15.7254
ltoes -28.4174
432
root 4.37209 17.5452 1.47723 -119.333 88.3058 -126.581
lowerback 2.03064 2.02696 1.36502
upperback -2.77265 2.79302 0.228284
thorax -3.93854 1.36351 -0.679438
lowerneck -19.5419 0.965648 2.35494
upperneck 28.3519 0.216809 2.76278
head 12.7035 0.92462 0.738549
rclavicle -1.17345e-014 8.39865e-015
rhumerus -32.8768 -16.6412 -23.7127
rradius 45.0715
rwrist -56.9468
rhand -49.1257 18.8777
rfingers 7.12502
rthumb -21.7498 -9.92036
lclavicle -1.17345e-014 8.39865e-015
lhumerus -36.9544 26.2933 23.9889
lradius 52.8463
lwrist 76.2672
lhand -24.6047 67.5456
lfingers 7.12502
lthumb 1.8933 -97.517
rfemur -8.67332 23.7172 21.7845
rtibia 19.5052
rfoot -23.3973 -41.7649
rtoes 18.7969
lfemur -20.5479 -20.5729 -14.7905
ltibia 30.1871
lfoot -17.0928 15.6412
ltoes -28.3087
433
root 4.36702 17.5443 1.47876 -119.279 88.3206 -126.507
lowerback 2.07197 2.01624 1.39325
upperback -2.75537 2.77988 0.227971
thorax -3.94296 1.35593 -0.696054
lowerneck -19.5868 0.986017 2.37758
upperneck 28.4093 0.249213 2.72285
head 12.736 0.937397 0.726131
rclavicle 3.90829e-014 1.90336e-014
rhumerus -33.3103 -16.6497 -23.921
rradius 48.2645
rwrist -60.4956
rhand -50.1747 20.8349
rfingers 7.12502
rthumb -22.7568 -7.84291
lclavicle 3.90829e-014 1.90336e-014
lhumerus -37.0855 27.9599 23.4751
lradius 54.9159
lwrist 79.1987
lhand -23.5195 67.5666
lfingers 7.12502
lthumb 2.94141 -97.5261
rfemur -8.65725 23.7318 21.7783
rtibia 19.4767
rfoot -23.3895 -41.7623
rtoes 18.7737
lfemur -20.5647 -20.497 -14.8093
ltibia 30.2199
lfoot -17.062 15.6103
ltoes -28.4656
434
root 4.36191 17.5437 1.47926 -119.33 88.3411 -126.551
lowerback 2.115 2.00391 1.42302
upperback -2.74296 2.76493 0.229234
thorax -3.95345 1.3474 -0.712002
lowerneck -19.6797 0.99685 2.33831
upperneck 28.484 0.269646 2.73569
head 12.7854 0.945713 0.743335
rclavicle -8.60675e-015 7.95139e-016
rhumerus -33.699 -16.3359 -24.2281
rradius 51.5597
rwrist -63.3791
rhand -50.9413 22.8317
rfingers 7.12502
rthumb -23.4923 -5.75386
lclavicle -8.60675e-015 7.95139e-016
lhumerus -37.3406 29.4586 22.9863
lradius 57.2989
lwrist 82.9573
lhand -23.0246 66.9794
lfingers 7.12502
lthumb 3.41929 -96.9318
rfemur -8.67187 23.7399 21.7548
rtibia 19.4863
rfoot -23.4146 -41.7546
rtoes 18.765
lfemur -20.5769 -20.5306 -14.8245
ltibia 30.2289
lfoot -17.0326 15.6696
ltoes -28.6107
435
root 4.35738 17.5443 1.4799 -119.277 88.3494 -126.502
lowerback 2.15407 1.97325 1.46564
upperback -2.73714 2.72604 0.227215
thorax -3.96833 1.3265 -0.737193
lowerneck -19.9153 0.998189 2.233
upperneck 28.69 0.266376 2.83438
head 12.9182 0.952044 0.805059
rclavicle -2.10184e-014 6.06293e-015
rhumerus -33.9668 -15.7688 -24.6568
rradius 54.8443
rwrist -65.6581
rhand -51.2067 23.9568
rfingers 7.12502
rthumb -23.7469 -4.59598
lclavicle -2.10184e-014 6.06293e-015
lhumerus -37.7358 30.9653 22.3909
lradius 59.8806
lwrist 87.1452
lhand -22.7933 66.2888
lfingers 7.12502
lthumb 3.64266 -96.2374
rfemur -8.72833 23.7463 21.7375
rtibia 19.5536
rfoot -23.4856 -41.7358
rtoes 18.8654
lfemur -20.581 -20.6464 -14.8112
ltibia 30.1926
lfoot -16.986 15.7912
ltoes -28.702
436
root 4.35403 17.545 1.48196 -119.277 88.3941 -126.514
lowerback 2.17931 1.94746 1.48536
upperback -2.76602 2.69217 0.190839
thorax -4.0107 1.308 -0.785462
lowerneck -20.0843 1.00096 2.21295
upperneck 28.9688 0.257299 2.88906
head 13.0687 0.962424 0.835736
rclavicle 4.28008e-015 -5.01931e-015
rhumerus -34.3391 -14.847 -25.1325
rradius 58.4392
rwrist -67.8878
rhand -51.2701 24.6809
rfingers 7.12502
rthumb -23.8077 -3.86398
lclavicle 4.28008e-015 -5.01931e-015
lhumerus -38.1509 32.2054 21.7463
lradius 62.5928
lwrist 91.5576
lhand -22.2302 65.5055
lfingers 7.12502
lthumb 4.1865 -95.4441
rfemur -8.79971 23.7756 21.6861
rtibia 19.6369
rfoot -23.617 -41.6819
rtoes 19.1574
lfemur -20.5789 -20.7491 -14.8257
ltibia 30.1401
lfoot -16.9496 15.9168
ltoes -28.7869
437
root 4.35194 17.5478 1.48509 -118.84 88.4802 -126.091
lowerback 2.16635 1.95063 1.4828
upperback -2.78887 2.69411 0.125806
thorax -4.02401 1.30783 -0.851041
lowerneck -20.128 0.990073 2.2547
upperneck 29.1389 0.22873 2.89223
head 13.1491 0.961114 0.829252
rclavicle 2.19595e-015 -1.14301e-014
rhumerus -34.8235 -13.769 -25.5646
rradius 62.349
rwrist -70.2434
rhand -51.1582 25.4754
rfingers 7.12502
rthumb -23.7003 -3.08338
lclavicle 2.19595e-015 -1.14301e-014
lhumerus -38.4206 33.1786 21.176
lradius 65.2596
lwrist 95.5737
lhand -22.691 63.7743
lfingers 7.12502
lthumb 3.74146 -93.7212
rfemur -8.84066 23.8345 21.6346
rtibia 19.698
rfoot -23.5416 -41.7458
rtoes 18.9215
lfemur -20.5713 -20.8365 -14.8681
ltibia 30.1128
lfoot -16.9836 16.0196
ltoes -28.6137
438
root 4.35102 17.55 1.48837 -117.429 88.5195 -124.691
lowerback 2.12485 1.94124 1.51968
upperback -2.78411 2.68074 0.0878914
thorax -3.99241 1.29979 -0.908114
lowerneck -20.1764 0.994831 2.25585
upperneck 29.2472 0.234855 2.89344
head 13.2043 0.967557 0.83339
rclavicle 1.51993e-014 1.26228e-014
rhumerus -35.1119 -12.9293 -25.9105
rradius 66.0695
rwrist -72.2332
rhand -50.3649 25.1763
rfingers 7.12502
rthumb -22.9393 -3.47903
lclavicle 1.51993e-014 1.26228e-014
lhumerus -38.6715 34.0487 20.6331
lradius 67.8515
lwrist 98.5377
lhand -21.375 61.8706
lfingers 7.12502
lthumb 5.01226 -91.7913
rfemur -8.86425 23.8972 21.6485
rtibia 19.7491
rfoot -23.4379 -41.8471
rtoes 18.5682
lfemur -20.5655 -20.9389 -14.8574
ltibia 30.1172
lfoot -17.0259 16.1532
ltoes -28.5036
439
root 4.35021 17.5456 1.49165 -116.558 88.5023 -123.84
lowerback 2.07452 1.89794 1.56594
upperback -2.7776 2.62384 0.0898677
thorax -3.95664 1.27058 -0.926762
lowerneck -20.2518 1.03418 2.25159
upperneck 29.3847 0.300118 2.8689
head 13.2771 0.996065 0.83932
rclavicle 1.12748e-014 1.2921e-015
rhumerus -35.1609 -12.2064 -26.1955
rradius 69.4759
rwrist -73.6357
rhand -49.3966 24.3836
rfingers 7.12502
rthumb -22.0099 -4.38407
lclavicle 1.12748e-014 1.2921e-015
lhumerus -38.9875 34.8424 20.1184
lradius 70.3862
lwrist 100.154
lhand -19.2863 59.56
lfingers 7.12502
lthumb 7.02877 -270.577
rfemur -8.9308 23.9334 21.6635
rtibia 19.8133
rfoot -23.6334 -41.7847
rtoes 18.9197
lfemur -20.5972 -21.0435 -14.7982
ltibia 30.1276
lfoot -16.9971 16.3
ltoes -28.7128
440
root 4.34961 17.5413 1.49485 -116.21 88.5113 -123.527
lowerback 2.03537 1.87135 1.57388
upperback -2.78798 2.58793 0.0804318
thorax -3.94539 1.25252 -0.937768
lowerneck -20.3249 1.04897 2.20632
upperneck 29.5197 0.31954 2.92353
head 13.3489 1.01137 0.875624
rclavicle 6.31607e-015 -3.97569e-015
rhumerus -35.161 -11.4497 -26.3987
rradius 72.604
rwrist -74.7186
rhand -48.1126 24.5156
rfingers 7.12502
rthumb -20.7766 -4.39206
lclavicle 6.31607e-015 -3.97569e-015
lhumerus -39.1274 35.2808 19.7413
lradius 72.8853
lwrist 100.818
lhand -16.7854 57.1902
lfingers 7.12502
lthumb 9.44244 -273.041
rfemur -9.01669 23.9684 21.6346
rtibia 19.8664
rfoot -23.8365 -41.7142
rtoes 19.2476
lfemur -20.6574 -21.0233 -14.7732
ltibia 30.1471
lfoot -16.9794 16.3066
ltoes -28.6842
